<svg xmlns="http://www.w3.org/2000/svg" version="1.1" xmlns:xlink="http://www.w3.org/1999/xlink" xmlns:svgjs="http://svgjs.dev/svgjs" width="1440" height="800" preserveAspectRatio="none" viewBox="0 0 1440 800"><g mask="url(&quot;#SvgjsMask1134&quot;)" fill="none"><g mask="url(&quot;#SvgjsMask1135&quot;)"><path d="M1086.5 594.5L1455.5 225.5L1455.5 20.5" stroke-width="6.83" stroke="rgba(223, 223, 224, 1)"></path><path d="M1076.25 594.5 a10.25 10.25 0 1 0 20.5 0 a10.25 10.25 0 1 0 -20.5 0zM1445.25 20.5 a10.25 10.25 0 1 0 20.5 0 a10.25 10.25 0 1 0 -20.5 0z" fill="rgba(223, 223, 224, 1)"></path><path d="M1127.5 676.5L1004.5 799.5L348.5 799.5" stroke-width="6.83" stroke="rgba(223, 223, 224, 1)"></path><path d="M1117.25 676.5 a10.25 10.25 0 1 0 20.5 0 a10.25 10.25 0 1 0 -20.5 0zM338.25 799.5 a10.25 10.25 0 1 0 20.5 0 a10.25 10.25 0 1 0 -20.5 0z" fill="rgba(223, 223, 224, 1)"></path><path d="M717.5 758.5L430.5 758.5L20.5 348.5L20.5 266.5" stroke-width="6.83" stroke="rgba(223, 223, 224, 1)"></path><path d="M707.25 758.5 a10.25 10.25 0 1 0 20.5 0 a10.25 10.25 0 1 0 -20.5 0zM10.25 266.5 a10.25 10.25 0 1 0 20.5 0 a10.25 10.25 0 1 0 -20.5 0z" fill="rgba(223, 223, 224, 1)"></path><path d="M225.5 184.5L225.5 266.5L143.5 348.5L61.5 348.5" stroke-width="6.83" stroke="rgba(223, 223, 224, 1)"></path><path d="M215.25 184.5 a10.25 10.25 0 1 0 20.5 0 a10.25 10.25 0 1 0 -20.5 0zM51.25 348.5 a10.25 10.25 0 1 0 20.5 0 a10.25 10.25 0 1 0 -20.5 0z" fill="rgba(223, 223, 224, 1)"></path><path d="M184.5 61.5L143.5 20.5L20.5 20.5" stroke-width="6.83" stroke="rgba(223, 223, 224, 1)"></path><path d="M174.25 61.5 a10.25 10.25 0 1 0 20.5 0 a10.25 10.25 0 1 0 -20.5 0zM10.25 20.5 a10.25 10.25 0 1 0 20.5 0 a10.25 10.25 0 1 0 -20.5 0z" fill="rgba(223, 223, 224, 1)"></path><path d="M389.5 430.5L635.5 430.5L840.5 225.5L840.5 20.5" stroke-width="6.83" stroke="rgba(223, 223, 224, 1)"></path><path d="M379.25 430.5 a10.25 10.25 0 1 0 20.5 0 a10.25 10.25 0 1 0 -20.5 0zM830.25 20.5 a10.25 10.25 0 1 0 20.5 0 a10.25 10.25 0 1 0 -20.5 0z" fill="rgba(223, 223, 224, 1)"></path><path d="M1168.5 61.5L881.5 61.5" stroke-width="6.83" stroke="rgba(223, 223, 224, 1)"></path><path d="M1158.25 61.5 a10.25 10.25 0 1 0 20.5 0 a10.25 10.25 0 1 0 -20.5 0zM871.25 61.5 a10.25 10.25 0 1 0 20.5 0 a10.25 10.25 0 1 0 -20.5 0z" fill="rgba(223, 223, 224, 1)"></path><path d="M1004.5 512.5L676.5 512.5L635.5 553.5L266.5 553.5L225.5 512.5" stroke-width="6.83" stroke="rgba(223, 223, 224, 1)"></path><path d="M994.25 512.5 a10.25 10.25 0 1 0 20.5 0 a10.25 10.25 0 1 0 -20.5 0zM215.25 512.5 a10.25 10.25 0 1 0 20.5 0 a10.25 10.25 0 1 0 -20.5 0z" fill="rgba(223, 223, 224, 1)"></path><path d="M307.5 102.5L225.5 20.5L184.5 20.5" stroke-width="6.83" stroke="rgba(223, 223, 224, 1)"></path><path d="M297.25 102.5 a10.25 10.25 0 1 0 20.5 0 a10.25 10.25 0 1 0 -20.5 0zM174.25 20.5 a10.25 10.25 0 1 0 20.5 0 a10.25 10.25 0 1 0 -20.5 0z" fill="rgba(223, 223, 224, 1)"></path><path d="M143.5 225.5L143.5 61.5" stroke-width="6.83" stroke="rgba(223, 223, 224, 1)"></path><path d="M133.25 225.5 a10.25 10.25 0 1 0 20.5 0 a10.25 10.25 0 1 0 -20.5 0zM133.25 61.5 a10.25 10.25 0 1 0 20.5 0 a10.25 10.25 0 1 0 -20.5 0z" fill="rgba(223, 223, 224, 1)"></path><path d="M963.5 717.5L635.5 717.5L594.5 676.5L389.5 676.5L307.5 594.5" stroke-width="6.83" stroke="rgba(223, 223, 224, 1)"></path><path d="M953.25 717.5 a10.25 10.25 0 1 0 20.5 0 a10.25 10.25 0 1 0 -20.5 0zM297.25 594.5 a10.25 10.25 0 1 0 20.5 0 a10.25 10.25 0 1 0 -20.5 0z" fill="rgba(223, 223, 224, 1)"></path><path d="M594.5 512.5L963.5 143.5L1373.5 143.5" stroke-width="6.83" stroke="rgba(223, 223, 224, 1)"></path><path d="M584.25 512.5 a10.25 10.25 0 1 0 20.5 0 a10.25 10.25 0 1 0 -20.5 0zM1363.25 143.5 a10.25 10.25 0 1 0 20.5 0 a10.25 10.25 0 1 0 -20.5 0z" fill="rgba(223, 223, 224, 1)"></path><path d="M758.5 389.5L1250.5 389.5L1414.5 225.5L1414.5 102.5" stroke-width="6.83" stroke="rgba(223, 223, 224, 1)"></path><path d="M748.25 389.5 a10.25 10.25 0 1 0 20.5 0 a10.25 10.25 0 1 0 -20.5 0zM1404.25 102.5 a10.25 10.25 0 1 0 20.5 0 a10.25 10.25 0 1 0 -20.5 0z" fill="rgba(223, 223, 224, 1)"></path><path d="M471.5 61.5L471.5 389.5" stroke-width="6.83" stroke="rgba(223, 223, 224, 1)"></path><path d="M461.25 61.5 a10.25 10.25 0 1 0 20.5 0 a10.25 10.25 0 1 0 -20.5 0zM461.25 389.5 a10.25 10.25 0 1 0 20.5 0 a10.25 10.25 0 1 0 -20.5 0z" fill="rgba(223, 223, 224, 1)"></path><path d="M1250.5 307.5L1209.5 348.5L881.5 348.5L840.5 307.5" stroke-width="6.83" stroke="rgba(223, 223, 224, 1)"></path><path d="M1240.25 307.5 a10.25 10.25 0 1 0 20.5 0 a10.25 10.25 0 1 0 -20.5 0zM830.25 307.5 a10.25 10.25 0 1 0 20.5 0 a10.25 10.25 0 1 0 -20.5 0z" fill="rgba(223, 223, 224, 1)"></path><path d="M1209.5 20.5L1291.5 102.5L1373.5 102.5L1414.5 61.5L1414.5 20.5" stroke-width="6.83" stroke="rgba(223, 223, 224, 1)"></path><path d="M1199.25 20.5 a10.25 10.25 0 1 0 20.5 0 a10.25 10.25 0 1 0 -20.5 0zM1404.25 20.5 a10.25 10.25 0 1 0 20.5 0 a10.25 10.25 0 1 0 -20.5 0z" fill="rgba(223, 223, 224, 1)"></path><path d="M20.5 717.5L102.5 799.5L307.5 799.5L348.5 758.5L348.5 717.5L20.5 389.5" stroke-width="6.83" stroke="rgba(223, 223, 224, 1)"></path><path d="M10.25 717.5 a10.25 10.25 0 1 0 20.5 0 a10.25 10.25 0 1 0 -20.5 0zM10.25 389.5 a10.25 10.25 0 1 0 20.5 0 a10.25 10.25 0 1 0 -20.5 0z" fill="rgba(223, 223, 224, 1)"></path><path d="M594.5 143.5L676.5 225.5L799.5 225.5" stroke-width="6.83" stroke="rgba(223, 223, 224, 1)"></path><path d="M584.25 143.5 a10.25 10.25 0 1 0 20.5 0 a10.25 10.25 0 1 0 -20.5 0zM789.25 225.5 a10.25 10.25 0 1 0 20.5 0 a10.25 10.25 0 1 0 -20.5 0z" fill="rgba(223, 223, 224, 1)"></path><path d="M1086.5 307.5L1086.5 184.5" stroke-width="6.83" stroke="rgba(223, 223, 224, 1)"></path><path d="M1076.25 307.5 a10.25 10.25 0 1 0 20.5 0 a10.25 10.25 0 1 0 -20.5 0zM1076.25 184.5 a10.25 10.25 0 1 0 20.5 0 a10.25 10.25 0 1 0 -20.5 0z" fill="rgba(223, 223, 224, 1)"></path><path d="M1086.5 102.5L881.5 102.5" stroke-width="6.83" stroke="rgba(223, 223, 224, 1)"></path><path d="M1076.25 102.5 a10.25 10.25 0 1 0 20.5 0 a10.25 10.25 0 1 0 -20.5 0zM871.25 102.5 a10.25 10.25 0 1 0 20.5 0 a10.25 10.25 0 1 0 -20.5 0z" fill="rgba(223, 223, 224, 1)"></path><path d="M1332.5 266.5L1332.5 225.5L1373.5 184.5" stroke-width="6.83" stroke="rgba(223, 223, 224, 1)"></path><path d="M1322.25 266.5 a10.25 10.25 0 1 0 20.5 0 a10.25 10.25 0 1 0 -20.5 0zM1363.25 184.5 a10.25 10.25 0 1 0 20.5 0 a10.25 10.25 0 1 0 -20.5 0z" fill="rgba(223, 223, 224, 1)"></path><path d="M307.5 348.5L307.5 225.5L430.5 102.5L430.5 61.5L471.5 20.5L635.5 20.5L799.5 184.5" stroke-width="6.83" stroke="rgba(223, 223, 224, 1)"></path><path d="M297.25 348.5 a10.25 10.25 0 1 0 20.5 0 a10.25 10.25 0 1 0 -20.5 0zM789.25 184.5 a10.25 10.25 0 1 0 20.5 0 a10.25 10.25 0 1 0 -20.5 0z" fill="rgba(223, 223, 224, 1)"></path><path d="M1209.5 184.5L1209.5 307.5" stroke-width="6.83" stroke="rgba(223, 223, 224, 1)"></path><path d="M1199.25 184.5 a10.25 10.25 0 1 0 20.5 0 a10.25 10.25 0 1 0 -20.5 0zM1199.25 307.5 a10.25 10.25 0 1 0 20.5 0 a10.25 10.25 0 1 0 -20.5 0z" fill="rgba(223, 223, 224, 1)"></path><path d="M1455.5 635.5L1250.5 635.5L1168.5 553.5" stroke-width="6.83" stroke="rgba(223, 223, 224, 1)"></path><path d="M1445.25 635.5 a10.25 10.25 0 1 0 20.5 0 a10.25 10.25 0 1 0 -20.5 0zM1158.25 553.5 a10.25 10.25 0 1 0 20.5 0 a10.25 10.25 0 1 0 -20.5 0z" fill="rgba(223, 223, 224, 1)"></path><path d="M1250.5 471.5L1455.5 266.5" stroke-width="6.83" stroke="rgba(223, 223, 224, 1)"></path><path d="M1240.25 471.5 a10.25 10.25 0 1 0 20.5 0 a10.25 10.25 0 1 0 -20.5 0zM1445.25 266.5 a10.25 10.25 0 1 0 20.5 0 a10.25 10.25 0 1 0 -20.5 0z" fill="rgba(223, 223, 224, 1)"></path><path d="M922.5 758.5L758.5 758.5" stroke-width="6.83" stroke="rgba(223, 223, 224, 1)"></path><path d="M912.25 758.5 a10.25 10.25 0 1 0 20.5 0 a10.25 10.25 0 1 0 -20.5 0zM748.25 758.5 a10.25 10.25 0 1 0 20.5 0 a10.25 10.25 0 1 0 -20.5 0z" fill="rgba(223, 223, 224, 1)"></path><path d="M1414.5 758.5L1332.5 676.5L1209.5 676.5L1168.5 635.5L635.5 635.5" stroke-width="6.83" stroke="rgba(223, 223, 224, 1)"></path><path d="M1404.25 758.5 a10.25 10.25 0 1 0 20.5 0 a10.25 10.25 0 1 0 -20.5 0zM625.25 635.5 a10.25 10.25 0 1 0 20.5 0 a10.25 10.25 0 1 0 -20.5 0z" fill="rgba(223, 223, 224, 1)"></path><path d="M1414.5 676.5L1414.5 717.5L1455.5 758.5L1455.5 799.5" stroke-width="6.83" stroke="rgba(223, 223, 224, 1)"></path><path d="M1404.25 676.5 a10.25 10.25 0 1 0 20.5 0 a10.25 10.25 0 1 0 -20.5 0zM1445.25 799.5 a10.25 10.25 0 1 0 20.5 0 a10.25 10.25 0 1 0 -20.5 0z" fill="rgba(223, 223, 224, 1)"></path><path d="M1373.5 594.5L1332.5 594.5L1250.5 512.5L1209.5 512.5" stroke-width="6.83" stroke="rgba(223, 223, 224, 1)"></path><path d="M1363.25 594.5 a10.25 10.25 0 1 0 20.5 0 a10.25 10.25 0 1 0 -20.5 0zM1199.25 512.5 a10.25 10.25 0 1 0 20.5 0 a10.25 10.25 0 1 0 -20.5 0z" fill="rgba(223, 223, 224, 1)"></path><path d="M553.5 389.5L553.5 61.5" stroke-width="6.83" stroke="rgba(223, 223, 224, 1)"></path><path d="M543.25 389.5 a10.25 10.25 0 1 0 20.5 0 a10.25 10.25 0 1 0 -20.5 0zM543.25 61.5 a10.25 10.25 0 1 0 20.5 0 a10.25 10.25 0 1 0 -20.5 0z" fill="rgba(223, 223, 224, 1)"></path><path d="M471.5 512.5L430.5 471.5L348.5 471.5L307.5 512.5L266.5 512.5L143.5 389.5" stroke-width="6.83" stroke="rgba(223, 223, 224, 1)"></path><path d="M461.25 512.5 a10.25 10.25 0 1 0 20.5 0 a10.25 10.25 0 1 0 -20.5 0zM133.25 389.5 a10.25 10.25 0 1 0 20.5 0 a10.25 10.25 0 1 0 -20.5 0z" fill="rgba(223, 223, 224, 1)"></path><path d="M184.5 102.5L266.5 102.5L307.5 143.5L348.5 143.5L389.5 102.5L389.5 20.5" stroke-width="6.83" stroke="rgba(223, 223, 224, 1)"></path><path d="M174.25 102.5 a10.25 10.25 0 1 0 20.5 0 a10.25 10.25 0 1 0 -20.5 0zM379.25 20.5 a10.25 10.25 0 1 0 20.5 0 a10.25 10.25 0 1 0 -20.5 0z" fill="rgba(223, 223, 224, 1)"></path><path d="M471.5 594.5L389.5 594.5" stroke-width="6.83" stroke="rgba(223, 223, 224, 1)"></path><path d="M461.25 594.5 a10.25 10.25 0 1 0 20.5 0 a10.25 10.25 0 1 0 -20.5 0zM379.25 594.5 a10.25 10.25 0 1 0 20.5 0 a10.25 10.25 0 1 0 -20.5 0z" fill="rgba(223, 223, 224, 1)"></path><path d="M1455.5 471.5L1291.5 471.5" stroke-width="6.83" stroke="rgba(223, 223, 224, 1)"></path><path d="M1445.25 471.5 a10.25 10.25 0 1 0 20.5 0 a10.25 10.25 0 1 0 -20.5 0zM1281.25 471.5 a10.25 10.25 0 1 0 20.5 0 a10.25 10.25 0 1 0 -20.5 0z" fill="rgba(223, 223, 224, 1)"></path><path d="M1045.5 20.5L881.5 20.5" stroke-width="6.83" stroke="rgba(223, 223, 224, 1)"></path><path d="M1035.25 20.5 a10.25 10.25 0 1 0 20.5 0 a10.25 10.25 0 1 0 -20.5 0zM871.25 20.5 a10.25 10.25 0 1 0 20.5 0 a10.25 10.25 0 1 0 -20.5 0z" fill="rgba(223, 223, 224, 1)"></path><path d="M922.5 307.5L1045.5 307.5" stroke-width="6.83" stroke="rgba(223, 223, 224, 1)"></path><path d="M912.25 307.5 a10.25 10.25 0 1 0 20.5 0 a10.25 10.25 0 1 0 -20.5 0zM1035.25 307.5 a10.25 10.25 0 1 0 20.5 0 a10.25 10.25 0 1 0 -20.5 0z" fill="rgba(223, 223, 224, 1)"></path><path d="M20.5 61.5L102.5 61.5" stroke-width="6.83" stroke="rgba(223, 223, 224, 1)"></path><path d="M10.25 61.5 a10.25 10.25 0 1 0 20.5 0 a10.25 10.25 0 1 0 -20.5 0zM92.25 61.5 a10.25 10.25 0 1 0 20.5 0 a10.25 10.25 0 1 0 -20.5 0z" fill="rgba(223, 223, 224, 1)"></path><path d="M389.5 348.5L348.5 307.5L348.5 225.5L430.5 143.5" stroke-width="6.83" stroke="rgba(223, 223, 224, 1)"></path><path d="M379.25 348.5 a10.25 10.25 0 1 0 20.5 0 a10.25 10.25 0 1 0 -20.5 0zM420.25 143.5 a10.25 10.25 0 1 0 20.5 0 a10.25 10.25 0 1 0 -20.5 0z" fill="rgba(223, 223, 224, 1)"></path><path d="M1127.5 471.5L1127.5 512.5L1045.5 594.5L512.5 594.5L471.5 635.5L389.5 635.5" stroke-width="6.83" stroke="rgba(223, 223, 224, 1)"></path><path d="M1117.25 471.5 a10.25 10.25 0 1 0 20.5 0 a10.25 10.25 0 1 0 -20.5 0zM379.25 635.5 a10.25 10.25 0 1 0 20.5 0 a10.25 10.25 0 1 0 -20.5 0z" fill="rgba(223, 223, 224, 1)"></path><path d="M307.5 471.5L430.5 348.5L430.5 184.5" stroke-width="6.83" stroke="rgba(223, 223, 224, 1)"></path><path d="M297.25 471.5 a10.25 10.25 0 1 0 20.5 0 a10.25 10.25 0 1 0 -20.5 0zM420.25 184.5 a10.25 10.25 0 1 0 20.5 0 a10.25 10.25 0 1 0 -20.5 0z" fill="rgba(223, 223, 224, 1)"></path><path d="M1004.5 676.5L1004.5 758.5" stroke-width="6.83" stroke="rgba(223, 223, 224, 1)"></path><path d="M994.25 676.5 a10.25 10.25 0 1 0 20.5 0 a10.25 10.25 0 1 0 -20.5 0zM994.25 758.5 a10.25 10.25 0 1 0 20.5 0 a10.25 10.25 0 1 0 -20.5 0z" fill="rgba(223, 223, 224, 1)"></path><path d="M676.5 102.5L594.5 102.5" stroke-width="6.83" stroke="rgba(223, 223, 224, 1)"></path><path d="M666.25 102.5 a10.25 10.25 0 1 0 20.5 0 a10.25 10.25 0 1 0 -20.5 0zM584.25 102.5 a10.25 10.25 0 1 0 20.5 0 a10.25 10.25 0 1 0 -20.5 0z" fill="rgba(223, 223, 224, 1)"></path><path d="M1045.5 184.5L1045.5 266.5" stroke-width="6.83" stroke="rgba(223, 223, 224, 1)"></path><path d="M1035.25 184.5 a10.25 10.25 0 1 0 20.5 0 a10.25 10.25 0 1 0 -20.5 0zM1035.25 266.5 a10.25 10.25 0 1 0 20.5 0 a10.25 10.25 0 1 0 -20.5 0z" fill="rgba(223, 223, 224, 1)"></path><path d="M758.5 676.5L963.5 676.5" stroke-width="6.83" stroke="rgba(223, 223, 224, 1)"></path><path d="M748.25 676.5 a10.25 10.25 0 1 0 20.5 0 a10.25 10.25 0 1 0 -20.5 0zM953.25 676.5 a10.25 10.25 0 1 0 20.5 0 a10.25 10.25 0 1 0 -20.5 0z" fill="rgba(223, 223, 224, 1)"></path><path d="M512.5 389.5L512.5 61.5" stroke-width="6.83" stroke="rgba(223, 223, 224, 1)"></path><path d="M502.25 389.5 a10.25 10.25 0 1 0 20.5 0 a10.25 10.25 0 1 0 -20.5 0zM502.25 61.5 a10.25 10.25 0 1 0 20.5 0 a10.25 10.25 0 1 0 -20.5 0z" fill="rgba(223, 223, 224, 1)"></path><path d="M1250.5 799.5L1414.5 799.5" stroke-width="6.83" stroke="rgba(223, 223, 224, 1)"></path><path d="M1240.25 799.5 a10.25 10.25 0 1 0 20.5 0 a10.25 10.25 0 1 0 -20.5 0zM1404.25 799.5 a10.25 10.25 0 1 0 20.5 0 a10.25 10.25 0 1 0 -20.5 0z" fill="rgba(223, 223, 224, 1)"></path><path d="M143.5 266.5L20.5 143.5L20.5 102.5" stroke-width="6.83" stroke="rgba(223, 223, 224, 1)"></path><path d="M133.25 266.5 a10.25 10.25 0 1 0 20.5 0 a10.25 10.25 0 1 0 -20.5 0zM10.25 102.5 a10.25 10.25 0 1 0 20.5 0 a10.25 10.25 0 1 0 -20.5 0z" fill="rgba(223, 223, 224, 1)"></path><path d="M143.5 307.5L61.5 307.5" stroke-width="6.83" stroke="rgba(223, 223, 224, 1)"></path><path d="M133.25 307.5 a10.25 10.25 0 1 0 20.5 0 a10.25 10.25 0 1 0 -20.5 0zM51.25 307.5 a10.25 10.25 0 1 0 20.5 0 a10.25 10.25 0 1 0 -20.5 0z" fill="rgba(223, 223, 224, 1)"></path><path d="M20.5 184.5L102.5 266.5" stroke-width="6.83" stroke="rgba(223, 223, 224, 1)"></path><path d="M10.25 184.5 a10.25 10.25 0 1 0 20.5 0 a10.25 10.25 0 1 0 -20.5 0zM92.25 266.5 a10.25 10.25 0 1 0 20.5 0 a10.25 10.25 0 1 0 -20.5 0z" fill="rgba(223, 223, 224, 1)"></path><path d="M1004.5 184.5L1004.5 266.5" stroke-width="6.83" stroke="rgba(223, 223, 224, 1)"></path><path d="M994.25 184.5 a10.25 10.25 0 1 0 20.5 0 a10.25 10.25 0 1 0 -20.5 0zM994.25 266.5 a10.25 10.25 0 1 0 20.5 0 a10.25 10.25 0 1 0 -20.5 0z" fill="rgba(223, 223, 224, 1)"></path><path d="M61.5 553.5L20.5 594.5L20.5 676.5L102.5 758.5L307.5 758.5" stroke-width="6.83" stroke="rgba(223, 223, 224, 1)"></path><path d="M51.25 553.5 a10.25 10.25 0 1 0 20.5 0 a10.25 10.25 0 1 0 -20.5 0zM297.25 758.5 a10.25 10.25 0 1 0 20.5 0 a10.25 10.25 0 1 0 -20.5 0z" fill="rgba(223, 223, 224, 1)"></path><path d="M1250.5 225.5L1291.5 266.5L1291.5 307.5" stroke-width="6.83" stroke="rgba(223, 223, 224, 1)"></path><path d="M1240.25 225.5 a10.25 10.25 0 1 0 20.5 0 a10.25 10.25 0 1 0 -20.5 0zM1281.25 307.5 a10.25 10.25 0 1 0 20.5 0 a10.25 10.25 0 1 0 -20.5 0z" fill="rgba(223, 223, 224, 1)"></path><path d="M1373.5 430.5L1373.5 389.5L1455.5 307.5" stroke-width="6.83" stroke="rgba(223, 223, 224, 1)"></path><path d="M1363.25 430.5 a10.25 10.25 0 1 0 20.5 0 a10.25 10.25 0 1 0 -20.5 0zM1445.25 307.5 a10.25 10.25 0 1 0 20.5 0 a10.25 10.25 0 1 0 -20.5 0z" fill="rgba(223, 223, 224, 1)"></path><path d="M799.5 471.5L758.5 430.5L717.5 430.5" stroke-width="6.83" stroke="rgba(223, 223, 224, 1)"></path><path d="M789.25 471.5 a10.25 10.25 0 1 0 20.5 0 a10.25 10.25 0 1 0 -20.5 0zM707.25 430.5 a10.25 10.25 0 1 0 20.5 0 a10.25 10.25 0 1 0 -20.5 0z" fill="rgba(223, 223, 224, 1)"></path><path d="M635.5 389.5L594.5 348.5L594.5 184.5" stroke-width="6.83" stroke="rgba(223, 223, 224, 1)"></path><path d="M625.25 389.5 a10.25 10.25 0 1 0 20.5 0 a10.25 10.25 0 1 0 -20.5 0zM584.25 184.5 a10.25 10.25 0 1 0 20.5 0 a10.25 10.25 0 1 0 -20.5 0z" fill="rgba(223, 223, 224, 1)"></path><path d="M963.5 553.5L676.5 553.5" stroke-width="6.83" stroke="rgba(223, 223, 224, 1)"></path><path d="M953.25 553.5 a10.25 10.25 0 1 0 20.5 0 a10.25 10.25 0 1 0 -20.5 0zM666.25 553.5 a10.25 10.25 0 1 0 20.5 0 a10.25 10.25 0 1 0 -20.5 0z" fill="rgba(223, 223, 224, 1)"></path><path d="M266.5 717.5L184.5 635.5L61.5 635.5" stroke-width="6.83" stroke="rgba(223, 223, 224, 1)"></path><path d="M256.25 717.5 a10.25 10.25 0 1 0 20.5 0 a10.25 10.25 0 1 0 -20.5 0zM51.25 635.5 a10.25 10.25 0 1 0 20.5 0 a10.25 10.25 0 1 0 -20.5 0z" fill="rgba(223, 223, 224, 1)"></path><path d="M225.5 389.5L266.5 348.5L266.5 143.5" stroke-width="6.83" stroke="rgba(223, 223, 224, 1)"></path><path d="M215.25 389.5 a10.25 10.25 0 1 0 20.5 0 a10.25 10.25 0 1 0 -20.5 0zM256.25 143.5 a10.25 10.25 0 1 0 20.5 0 a10.25 10.25 0 1 0 -20.5 0z" fill="rgba(223, 223, 224, 1)"></path><path d="M1414.5 594.5L1332.5 512.5L1291.5 512.5" stroke-width="6.83" stroke="rgba(223, 223, 224, 1)"></path><path d="M1404.25 594.5 a10.25 10.25 0 1 0 20.5 0 a10.25 10.25 0 1 0 -20.5 0zM1281.25 512.5 a10.25 10.25 0 1 0 20.5 0 a10.25 10.25 0 1 0 -20.5 0z" fill="rgba(223, 223, 224, 1)"></path><path d="M881.5 430.5L922.5 471.5L963.5 471.5L1004.5 430.5" stroke-width="6.83" stroke="rgba(223, 223, 224, 1)"></path><path d="M871.25 430.5 a10.25 10.25 0 1 0 20.5 0 a10.25 10.25 0 1 0 -20.5 0zM994.25 430.5 a10.25 10.25 0 1 0 20.5 0 a10.25 10.25 0 1 0 -20.5 0z" fill="rgba(223, 223, 224, 1)"></path><path d="M20.5 430.5L184.5 594.5" stroke-width="6.83" stroke="rgba(223, 223, 224, 1)"></path><path d="M10.25 430.5 a10.25 10.25 0 1 0 20.5 0 a10.25 10.25 0 1 0 -20.5 0zM174.25 594.5 a10.25 10.25 0 1 0 20.5 0 a10.25 10.25 0 1 0 -20.5 0z" fill="rgba(223, 223, 224, 1)"></path><path d="M184.5 184.5L184.5 266.5" stroke-width="6.83" stroke="rgba(223, 223, 224, 1)"></path><path d="M174.25 184.5 a10.25 10.25 0 1 0 20.5 0 a10.25 10.25 0 1 0 -20.5 0zM174.25 266.5 a10.25 10.25 0 1 0 20.5 0 a10.25 10.25 0 1 0 -20.5 0z" fill="rgba(223, 223, 224, 1)"></path><path d="M799.5 61.5L717.5 61.5L676.5 20.5" stroke-width="6.83" stroke="rgba(223, 223, 224, 1)"></path><path d="M789.25 61.5 a10.25 10.25 0 1 0 20.5 0 a10.25 10.25 0 1 0 -20.5 0zM666.25 20.5 a10.25 10.25 0 1 0 20.5 0 a10.25 10.25 0 1 0 -20.5 0z" fill="rgba(223, 223, 224, 1)"></path><path d="M1168.5 717.5L1291.5 717.5L1332.5 758.5L1373.5 758.5" stroke-width="6.83" stroke="rgba(223, 223, 224, 1)"></path><path d="M1158.25 717.5 a10.25 10.25 0 1 0 20.5 0 a10.25 10.25 0 1 0 -20.5 0zM1363.25 758.5 a10.25 10.25 0 1 0 20.5 0 a10.25 10.25 0 1 0 -20.5 0z" fill="rgba(223, 223, 224, 1)"></path><path d="M635.5 143.5L676.5 143.5L717.5 184.5L758.5 184.5" stroke-width="6.83" stroke="rgba(223, 223, 224, 1)"></path><path d="M625.25 143.5 a10.25 10.25 0 1 0 20.5 0 a10.25 10.25 0 1 0 -20.5 0zM748.25 184.5 a10.25 10.25 0 1 0 20.5 0 a10.25 10.25 0 1 0 -20.5 0z" fill="rgba(223, 223, 224, 1)"></path><path d="M20.5 553.5L20.5 471.5" stroke-width="6.83" stroke="rgba(223, 223, 224, 1)"></path><path d="M10.25 553.5 a10.25 10.25 0 1 0 20.5 0 a10.25 10.25 0 1 0 -20.5 0zM10.25 471.5 a10.25 10.25 0 1 0 20.5 0 a10.25 10.25 0 1 0 -20.5 0z" fill="rgba(223, 223, 224, 1)"></path><path d="M1127.5 717.5L1045.5 799.5" stroke-width="6.83" stroke="rgba(223, 223, 224, 1)"></path><path d="M1117.25 717.5 a10.25 10.25 0 1 0 20.5 0 a10.25 10.25 0 1 0 -20.5 0zM1035.25 799.5 a10.25 10.25 0 1 0 20.5 0 a10.25 10.25 0 1 0 -20.5 0z" fill="rgba(223, 223, 224, 1)"></path><path d="M1086.5 799.5L1168.5 799.5" stroke-width="6.83" stroke="rgba(223, 223, 224, 1)"></path><path d="M1076.25 799.5 a10.25 10.25 0 1 0 20.5 0 a10.25 10.25 0 1 0 -20.5 0zM1158.25 799.5 a10.25 10.25 0 1 0 20.5 0 a10.25 10.25 0 1 0 -20.5 0z" fill="rgba(223, 223, 224, 1)"></path><path d="M963.5 266.5L881.5 266.5" stroke-width="6.83" stroke="rgba(223, 223, 224, 1)"></path><path d="M953.25 266.5 a10.25 10.25 0 1 0 20.5 0 a10.25 10.25 0 1 0 -20.5 0zM871.25 266.5 a10.25 10.25 0 1 0 20.5 0 a10.25 10.25 0 1 0 -20.5 0z" fill="rgba(223, 223, 224, 1)"></path><path d="M799.5 430.5L840.5 471.5L881.5 471.5" stroke-width="6.83" stroke="rgba(223, 223, 224, 1)"></path><path d="M789.25 430.5 a10.25 10.25 0 1 0 20.5 0 a10.25 10.25 0 1 0 -20.5 0zM871.25 471.5 a10.25 10.25 0 1 0 20.5 0 a10.25 10.25 0 1 0 -20.5 0z" fill="rgba(223, 223, 224, 1)"></path><path d="M143.5 676.5L61.5 676.5" stroke-width="6.83" stroke="rgba(223, 223, 224, 1)"></path><path d="M133.25 676.5 a10.25 10.25 0 1 0 20.5 0 a10.25 10.25 0 1 0 -20.5 0zM51.25 676.5 a10.25 10.25 0 1 0 20.5 0 a10.25 10.25 0 1 0 -20.5 0z" fill="rgba(223, 223, 224, 1)"></path><path d="M102.5 717.5L184.5 717.5" stroke-width="6.83" stroke="rgba(223, 223, 224, 1)"></path><path d="M92.25 717.5 a10.25 10.25 0 1 0 20.5 0 a10.25 10.25 0 1 0 -20.5 0zM174.25 717.5 a10.25 10.25 0 1 0 20.5 0 a10.25 10.25 0 1 0 -20.5 0z" fill="rgba(223, 223, 224, 1)"></path><path d="M1168.5 184.5L1168.5 307.5" stroke-width="6.83" stroke="rgba(223, 223, 224, 1)"></path><path d="M1158.25 184.5 a10.25 10.25 0 1 0 20.5 0 a10.25 10.25 0 1 0 -20.5 0zM1158.25 307.5 a10.25 10.25 0 1 0 20.5 0 a10.25 10.25 0 1 0 -20.5 0z" fill="rgba(223, 223, 224, 1)"></path><path d="M1291.5 594.5L1250.5 594.5L1209.5 553.5" stroke-width="6.83" stroke="rgba(223, 223, 224, 1)"></path><path d="M1281.25 594.5 a10.25 10.25 0 1 0 20.5 0 a10.25 10.25 0 1 0 -20.5 0zM1199.25 553.5 a10.25 10.25 0 1 0 20.5 0 a10.25 10.25 0 1 0 -20.5 0z" fill="rgba(223, 223, 224, 1)"></path><path d="M266.5 389.5L266.5 471.5" stroke-width="6.83" stroke="rgba(223, 223, 224, 1)"></path><path d="M256.25 389.5 a10.25 10.25 0 1 0 20.5 0 a10.25 10.25 0 1 0 -20.5 0zM256.25 471.5 a10.25 10.25 0 1 0 20.5 0 a10.25 10.25 0 1 0 -20.5 0z" fill="rgba(223, 223, 224, 1)"></path><path d="M348.5 20.5L348.5 102.5" stroke-width="6.83" stroke="rgba(223, 223, 224, 1)"></path><path d="M338.25 20.5 a10.25 10.25 0 1 0 20.5 0 a10.25 10.25 0 1 0 -20.5 0zM338.25 102.5 a10.25 10.25 0 1 0 20.5 0 a10.25 10.25 0 1 0 -20.5 0z" fill="rgba(223, 223, 224, 1)"></path><path d="M389.5 307.5L389.5 225.5" stroke-width="6.83" stroke="rgba(223, 223, 224, 1)"></path><path d="M379.25 307.5 a10.25 10.25 0 1 0 20.5 0 a10.25 10.25 0 1 0 -20.5 0zM379.25 225.5 a10.25 10.25 0 1 0 20.5 0 a10.25 10.25 0 1 0 -20.5 0z" fill="rgba(223, 223, 224, 1)"></path><path d="M1045.5 553.5L1045.5 471.5" stroke-width="6.83" stroke="rgba(223, 223, 224, 1)"></path><path d="M1035.25 553.5 a10.25 10.25 0 1 0 20.5 0 a10.25 10.25 0 1 0 -20.5 0zM1035.25 471.5 a10.25 10.25 0 1 0 20.5 0 a10.25 10.25 0 1 0 -20.5 0z" fill="rgba(223, 223, 224, 1)"></path></g></g><defs><mask id="SvgjsMask1134"><rect width="1440" height="800" fill="#ffffff"></rect></mask><mask id="SvgjsMask1135"><rect width="1440" height="800" fill="white"></rect><path d="M1081.37 594.5 a5.13 5.13 0 1 0 10.26 0 a5.13 5.13 0 1 0 -10.26 0zM1450.37 20.5 a5.13 5.13 0 1 0 10.26 0 a5.13 5.13 0 1 0 -10.26 0z" fill="black"></path><path d="M1122.37 676.5 a5.13 5.13 0 1 0 10.26 0 a5.13 5.13 0 1 0 -10.26 0zM343.37 799.5 a5.13 5.13 0 1 0 10.26 0 a5.13 5.13 0 1 0 -10.26 0z" fill="black"></path><path d="M712.37 758.5 a5.13 5.13 0 1 0 10.26 0 a5.13 5.13 0 1 0 -10.26 0zM15.37 266.5 a5.13 5.13 0 1 0 10.26 0 a5.13 5.13 0 1 0 -10.26 0z" fill="black"></path><path d="M220.37 184.5 a5.13 5.13 0 1 0 10.26 0 a5.13 5.13 0 1 0 -10.26 0zM56.37 348.5 a5.13 5.13 0 1 0 10.26 0 a5.13 5.13 0 1 0 -10.26 0z" fill="black"></path><path d="M179.37 61.5 a5.13 5.13 0 1 0 10.26 0 a5.13 5.13 0 1 0 -10.26 0zM15.37 20.5 a5.13 5.13 0 1 0 10.26 0 a5.13 5.13 0 1 0 -10.26 0z" fill="black"></path><path d="M384.37 430.5 a5.13 5.13 0 1 0 10.26 0 a5.13 5.13 0 1 0 -10.26 0zM835.37 20.5 a5.13 5.13 0 1 0 10.26 0 a5.13 5.13 0 1 0 -10.26 0z" fill="black"></path><path d="M1163.37 61.5 a5.13 5.13 0 1 0 10.26 0 a5.13 5.13 0 1 0 -10.26 0zM876.37 61.5 a5.13 5.13 0 1 0 10.26 0 a5.13 5.13 0 1 0 -10.26 0z" fill="black"></path><path d="M999.37 512.5 a5.13 5.13 0 1 0 10.26 0 a5.13 5.13 0 1 0 -10.26 0zM220.37 512.5 a5.13 5.13 0 1 0 10.26 0 a5.13 5.13 0 1 0 -10.26 0z" fill="black"></path><path d="M302.37 102.5 a5.13 5.13 0 1 0 10.26 0 a5.13 5.13 0 1 0 -10.26 0zM179.37 20.5 a5.13 5.13 0 1 0 10.26 0 a5.13 5.13 0 1 0 -10.26 0z" fill="black"></path><path d="M138.37 225.5 a5.13 5.13 0 1 0 10.26 0 a5.13 5.13 0 1 0 -10.26 0zM138.37 61.5 a5.13 5.13 0 1 0 10.26 0 a5.13 5.13 0 1 0 -10.26 0z" fill="black"></path><path d="M958.37 717.5 a5.13 5.13 0 1 0 10.26 0 a5.13 5.13 0 1 0 -10.26 0zM302.37 594.5 a5.13 5.13 0 1 0 10.26 0 a5.13 5.13 0 1 0 -10.26 0z" fill="black"></path><path d="M589.37 512.5 a5.13 5.13 0 1 0 10.26 0 a5.13 5.13 0 1 0 -10.26 0zM1368.37 143.5 a5.13 5.13 0 1 0 10.26 0 a5.13 5.13 0 1 0 -10.26 0z" fill="black"></path><path d="M753.37 389.5 a5.13 5.13 0 1 0 10.26 0 a5.13 5.13 0 1 0 -10.26 0zM1409.37 102.5 a5.13 5.13 0 1 0 10.26 0 a5.13 5.13 0 1 0 -10.26 0z" fill="black"></path><path d="M466.37 61.5 a5.13 5.13 0 1 0 10.26 0 a5.13 5.13 0 1 0 -10.26 0zM466.37 389.5 a5.13 5.13 0 1 0 10.26 0 a5.13 5.13 0 1 0 -10.26 0z" fill="black"></path><path d="M1245.37 307.5 a5.13 5.13 0 1 0 10.26 0 a5.13 5.13 0 1 0 -10.26 0zM835.37 307.5 a5.13 5.13 0 1 0 10.26 0 a5.13 5.13 0 1 0 -10.26 0z" fill="black"></path><path d="M1204.37 20.5 a5.13 5.13 0 1 0 10.26 0 a5.13 5.13 0 1 0 -10.26 0zM1409.37 20.5 a5.13 5.13 0 1 0 10.26 0 a5.13 5.13 0 1 0 -10.26 0z" fill="black"></path><path d="M15.37 717.5 a5.13 5.13 0 1 0 10.26 0 a5.13 5.13 0 1 0 -10.26 0zM15.37 389.5 a5.13 5.13 0 1 0 10.26 0 a5.13 5.13 0 1 0 -10.26 0z" fill="black"></path><path d="M589.37 143.5 a5.13 5.13 0 1 0 10.26 0 a5.13 5.13 0 1 0 -10.26 0zM794.37 225.5 a5.13 5.13 0 1 0 10.26 0 a5.13 5.13 0 1 0 -10.26 0z" fill="black"></path><path d="M1081.37 307.5 a5.13 5.13 0 1 0 10.26 0 a5.13 5.13 0 1 0 -10.26 0zM1081.37 184.5 a5.13 5.13 0 1 0 10.26 0 a5.13 5.13 0 1 0 -10.26 0z" fill="black"></path><path d="M1081.37 102.5 a5.13 5.13 0 1 0 10.26 0 a5.13 5.13 0 1 0 -10.26 0zM876.37 102.5 a5.13 5.13 0 1 0 10.26 0 a5.13 5.13 0 1 0 -10.26 0z" fill="black"></path><path d="M1327.37 266.5 a5.13 5.13 0 1 0 10.26 0 a5.13 5.13 0 1 0 -10.26 0zM1368.37 184.5 a5.13 5.13 0 1 0 10.26 0 a5.13 5.13 0 1 0 -10.26 0z" fill="black"></path><path d="M302.37 348.5 a5.13 5.13 0 1 0 10.26 0 a5.13 5.13 0 1 0 -10.26 0zM794.37 184.5 a5.13 5.13 0 1 0 10.26 0 a5.13 5.13 0 1 0 -10.26 0z" fill="black"></path><path d="M1204.37 184.5 a5.13 5.13 0 1 0 10.26 0 a5.13 5.13 0 1 0 -10.26 0zM1204.37 307.5 a5.13 5.13 0 1 0 10.26 0 a5.13 5.13 0 1 0 -10.26 0z" fill="black"></path><path d="M1450.37 635.5 a5.13 5.13 0 1 0 10.26 0 a5.13 5.13 0 1 0 -10.26 0zM1163.37 553.5 a5.13 5.13 0 1 0 10.26 0 a5.13 5.13 0 1 0 -10.26 0z" fill="black"></path><path d="M1245.37 471.5 a5.13 5.13 0 1 0 10.26 0 a5.13 5.13 0 1 0 -10.26 0zM1450.37 266.5 a5.13 5.13 0 1 0 10.26 0 a5.13 5.13 0 1 0 -10.26 0z" fill="black"></path><path d="M917.37 758.5 a5.13 5.13 0 1 0 10.26 0 a5.13 5.13 0 1 0 -10.26 0zM753.37 758.5 a5.13 5.13 0 1 0 10.26 0 a5.13 5.13 0 1 0 -10.26 0z" fill="black"></path><path d="M1409.37 758.5 a5.13 5.13 0 1 0 10.26 0 a5.13 5.13 0 1 0 -10.26 0zM630.37 635.5 a5.13 5.13 0 1 0 10.26 0 a5.13 5.13 0 1 0 -10.26 0z" fill="black"></path><path d="M1409.37 676.5 a5.13 5.13 0 1 0 10.26 0 a5.13 5.13 0 1 0 -10.26 0zM1450.37 799.5 a5.13 5.13 0 1 0 10.26 0 a5.13 5.13 0 1 0 -10.26 0z" fill="black"></path><path d="M1368.37 594.5 a5.13 5.13 0 1 0 10.26 0 a5.13 5.13 0 1 0 -10.26 0zM1204.37 512.5 a5.13 5.13 0 1 0 10.26 0 a5.13 5.13 0 1 0 -10.26 0z" fill="black"></path><path d="M548.37 389.5 a5.13 5.13 0 1 0 10.26 0 a5.13 5.13 0 1 0 -10.26 0zM548.37 61.5 a5.13 5.13 0 1 0 10.26 0 a5.13 5.13 0 1 0 -10.26 0z" fill="black"></path><path d="M466.37 512.5 a5.13 5.13 0 1 0 10.26 0 a5.13 5.13 0 1 0 -10.26 0zM138.37 389.5 a5.13 5.13 0 1 0 10.26 0 a5.13 5.13 0 1 0 -10.26 0z" fill="black"></path><path d="M179.37 102.5 a5.13 5.13 0 1 0 10.26 0 a5.13 5.13 0 1 0 -10.26 0zM384.37 20.5 a5.13 5.13 0 1 0 10.26 0 a5.13 5.13 0 1 0 -10.26 0z" fill="black"></path><path d="M466.37 594.5 a5.13 5.13 0 1 0 10.26 0 a5.13 5.13 0 1 0 -10.26 0zM384.37 594.5 a5.13 5.13 0 1 0 10.26 0 a5.13 5.13 0 1 0 -10.26 0z" fill="black"></path><path d="M1450.37 471.5 a5.13 5.13 0 1 0 10.26 0 a5.13 5.13 0 1 0 -10.26 0zM1286.37 471.5 a5.13 5.13 0 1 0 10.26 0 a5.13 5.13 0 1 0 -10.26 0z" fill="black"></path><path d="M1040.37 20.5 a5.13 5.13 0 1 0 10.26 0 a5.13 5.13 0 1 0 -10.26 0zM876.37 20.5 a5.13 5.13 0 1 0 10.26 0 a5.13 5.13 0 1 0 -10.26 0z" fill="black"></path><path d="M917.37 307.5 a5.13 5.13 0 1 0 10.26 0 a5.13 5.13 0 1 0 -10.26 0zM1040.37 307.5 a5.13 5.13 0 1 0 10.26 0 a5.13 5.13 0 1 0 -10.26 0z" fill="black"></path><path d="M15.37 61.5 a5.13 5.13 0 1 0 10.26 0 a5.13 5.13 0 1 0 -10.26 0zM97.37 61.5 a5.13 5.13 0 1 0 10.26 0 a5.13 5.13 0 1 0 -10.26 0z" fill="black"></path><path d="M384.37 348.5 a5.13 5.13 0 1 0 10.26 0 a5.13 5.13 0 1 0 -10.26 0zM425.37 143.5 a5.13 5.13 0 1 0 10.26 0 a5.13 5.13 0 1 0 -10.26 0z" fill="black"></path><path d="M1122.37 471.5 a5.13 5.13 0 1 0 10.26 0 a5.13 5.13 0 1 0 -10.26 0zM384.37 635.5 a5.13 5.13 0 1 0 10.26 0 a5.13 5.13 0 1 0 -10.26 0z" fill="black"></path><path d="M302.37 471.5 a5.13 5.13 0 1 0 10.26 0 a5.13 5.13 0 1 0 -10.26 0zM425.37 184.5 a5.13 5.13 0 1 0 10.26 0 a5.13 5.13 0 1 0 -10.26 0z" fill="black"></path><path d="M999.37 676.5 a5.13 5.13 0 1 0 10.26 0 a5.13 5.13 0 1 0 -10.26 0zM999.37 758.5 a5.13 5.13 0 1 0 10.26 0 a5.13 5.13 0 1 0 -10.26 0z" fill="black"></path><path d="M671.37 102.5 a5.13 5.13 0 1 0 10.26 0 a5.13 5.13 0 1 0 -10.26 0zM589.37 102.5 a5.13 5.13 0 1 0 10.26 0 a5.13 5.13 0 1 0 -10.26 0z" fill="black"></path><path d="M1040.37 184.5 a5.13 5.13 0 1 0 10.26 0 a5.13 5.13 0 1 0 -10.26 0zM1040.37 266.5 a5.13 5.13 0 1 0 10.26 0 a5.13 5.13 0 1 0 -10.26 0z" fill="black"></path><path d="M753.37 676.5 a5.13 5.13 0 1 0 10.26 0 a5.13 5.13 0 1 0 -10.26 0zM958.37 676.5 a5.13 5.13 0 1 0 10.26 0 a5.13 5.13 0 1 0 -10.26 0z" fill="black"></path><path d="M507.37 389.5 a5.13 5.13 0 1 0 10.26 0 a5.13 5.13 0 1 0 -10.26 0zM507.37 61.5 a5.13 5.13 0 1 0 10.26 0 a5.13 5.13 0 1 0 -10.26 0z" fill="black"></path><path d="M1245.37 799.5 a5.13 5.13 0 1 0 10.26 0 a5.13 5.13 0 1 0 -10.26 0zM1409.37 799.5 a5.13 5.13 0 1 0 10.26 0 a5.13 5.13 0 1 0 -10.26 0z" fill="black"></path><path d="M138.37 266.5 a5.13 5.13 0 1 0 10.26 0 a5.13 5.13 0 1 0 -10.26 0zM15.37 102.5 a5.13 5.13 0 1 0 10.26 0 a5.13 5.13 0 1 0 -10.26 0z" fill="black"></path><path d="M138.37 307.5 a5.13 5.13 0 1 0 10.26 0 a5.13 5.13 0 1 0 -10.26 0zM56.37 307.5 a5.13 5.13 0 1 0 10.26 0 a5.13 5.13 0 1 0 -10.26 0z" fill="black"></path><path d="M15.37 184.5 a5.13 5.13 0 1 0 10.26 0 a5.13 5.13 0 1 0 -10.26 0zM97.37 266.5 a5.13 5.13 0 1 0 10.26 0 a5.13 5.13 0 1 0 -10.26 0z" fill="black"></path><path d="M999.37 184.5 a5.13 5.13 0 1 0 10.26 0 a5.13 5.13 0 1 0 -10.26 0zM999.37 266.5 a5.13 5.13 0 1 0 10.26 0 a5.13 5.13 0 1 0 -10.26 0z" fill="black"></path><path d="M56.37 553.5 a5.13 5.13 0 1 0 10.26 0 a5.13 5.13 0 1 0 -10.26 0zM302.37 758.5 a5.13 5.13 0 1 0 10.26 0 a5.13 5.13 0 1 0 -10.26 0z" fill="black"></path><path d="M1245.37 225.5 a5.13 5.13 0 1 0 10.26 0 a5.13 5.13 0 1 0 -10.26 0zM1286.37 307.5 a5.13 5.13 0 1 0 10.26 0 a5.13 5.13 0 1 0 -10.26 0z" fill="black"></path><path d="M1368.37 430.5 a5.13 5.13 0 1 0 10.26 0 a5.13 5.13 0 1 0 -10.26 0zM1450.37 307.5 a5.13 5.13 0 1 0 10.26 0 a5.13 5.13 0 1 0 -10.26 0z" fill="black"></path><path d="M794.37 471.5 a5.13 5.13 0 1 0 10.26 0 a5.13 5.13 0 1 0 -10.26 0zM712.37 430.5 a5.13 5.13 0 1 0 10.26 0 a5.13 5.13 0 1 0 -10.26 0z" fill="black"></path><path d="M630.37 389.5 a5.13 5.13 0 1 0 10.26 0 a5.13 5.13 0 1 0 -10.26 0zM589.37 184.5 a5.13 5.13 0 1 0 10.26 0 a5.13 5.13 0 1 0 -10.26 0z" fill="black"></path><path d="M958.37 553.5 a5.13 5.13 0 1 0 10.26 0 a5.13 5.13 0 1 0 -10.26 0zM671.37 553.5 a5.13 5.13 0 1 0 10.26 0 a5.13 5.13 0 1 0 -10.26 0z" fill="black"></path><path d="M261.37 717.5 a5.13 5.13 0 1 0 10.26 0 a5.13 5.13 0 1 0 -10.26 0zM56.37 635.5 a5.13 5.13 0 1 0 10.26 0 a5.13 5.13 0 1 0 -10.26 0z" fill="black"></path><path d="M220.37 389.5 a5.13 5.13 0 1 0 10.26 0 a5.13 5.13 0 1 0 -10.26 0zM261.37 143.5 a5.13 5.13 0 1 0 10.26 0 a5.13 5.13 0 1 0 -10.26 0z" fill="black"></path><path d="M1409.37 594.5 a5.13 5.13 0 1 0 10.26 0 a5.13 5.13 0 1 0 -10.26 0zM1286.37 512.5 a5.13 5.13 0 1 0 10.26 0 a5.13 5.13 0 1 0 -10.26 0z" fill="black"></path><path d="M876.37 430.5 a5.13 5.13 0 1 0 10.26 0 a5.13 5.13 0 1 0 -10.26 0zM999.37 430.5 a5.13 5.13 0 1 0 10.26 0 a5.13 5.13 0 1 0 -10.26 0z" fill="black"></path><path d="M15.37 430.5 a5.13 5.13 0 1 0 10.26 0 a5.13 5.13 0 1 0 -10.26 0zM179.37 594.5 a5.13 5.13 0 1 0 10.26 0 a5.13 5.13 0 1 0 -10.26 0z" fill="black"></path><path d="M179.37 184.5 a5.13 5.13 0 1 0 10.26 0 a5.13 5.13 0 1 0 -10.26 0zM179.37 266.5 a5.13 5.13 0 1 0 10.26 0 a5.13 5.13 0 1 0 -10.26 0z" fill="black"></path><path d="M794.37 61.5 a5.13 5.13 0 1 0 10.26 0 a5.13 5.13 0 1 0 -10.26 0zM671.37 20.5 a5.13 5.13 0 1 0 10.26 0 a5.13 5.13 0 1 0 -10.26 0z" fill="black"></path><path d="M1163.37 717.5 a5.13 5.13 0 1 0 10.26 0 a5.13 5.13 0 1 0 -10.26 0zM1368.37 758.5 a5.13 5.13 0 1 0 10.26 0 a5.13 5.13 0 1 0 -10.26 0z" fill="black"></path><path d="M630.37 143.5 a5.13 5.13 0 1 0 10.26 0 a5.13 5.13 0 1 0 -10.26 0zM753.37 184.5 a5.13 5.13 0 1 0 10.26 0 a5.13 5.13 0 1 0 -10.26 0z" fill="black"></path><path d="M15.37 553.5 a5.13 5.13 0 1 0 10.26 0 a5.13 5.13 0 1 0 -10.26 0zM15.37 471.5 a5.13 5.13 0 1 0 10.26 0 a5.13 5.13 0 1 0 -10.26 0z" fill="black"></path><path d="M1122.37 717.5 a5.13 5.13 0 1 0 10.26 0 a5.13 5.13 0 1 0 -10.26 0zM1040.37 799.5 a5.13 5.13 0 1 0 10.26 0 a5.13 5.13 0 1 0 -10.26 0z" fill="black"></path><path d="M1081.37 799.5 a5.13 5.13 0 1 0 10.26 0 a5.13 5.13 0 1 0 -10.26 0zM1163.37 799.5 a5.13 5.13 0 1 0 10.26 0 a5.13 5.13 0 1 0 -10.26 0z" fill="black"></path><path d="M958.37 266.5 a5.13 5.13 0 1 0 10.26 0 a5.13 5.13 0 1 0 -10.26 0zM876.37 266.5 a5.13 5.13 0 1 0 10.26 0 a5.13 5.13 0 1 0 -10.26 0z" fill="black"></path><path d="M794.37 430.5 a5.13 5.13 0 1 0 10.26 0 a5.13 5.13 0 1 0 -10.26 0zM876.37 471.5 a5.13 5.13 0 1 0 10.26 0 a5.13 5.13 0 1 0 -10.26 0z" fill="black"></path><path d="M138.37 676.5 a5.13 5.13 0 1 0 10.26 0 a5.13 5.13 0 1 0 -10.26 0zM56.37 676.5 a5.13 5.13 0 1 0 10.26 0 a5.13 5.13 0 1 0 -10.26 0z" fill="black"></path><path d="M97.37 717.5 a5.13 5.13 0 1 0 10.26 0 a5.13 5.13 0 1 0 -10.26 0zM179.37 717.5 a5.13 5.13 0 1 0 10.26 0 a5.13 5.13 0 1 0 -10.26 0z" fill="black"></path><path d="M1163.37 184.5 a5.13 5.13 0 1 0 10.26 0 a5.13 5.13 0 1 0 -10.26 0zM1163.37 307.5 a5.13 5.13 0 1 0 10.26 0 a5.13 5.13 0 1 0 -10.26 0z" fill="black"></path><path d="M1286.37 594.5 a5.13 5.13 0 1 0 10.26 0 a5.13 5.13 0 1 0 -10.26 0zM1204.37 553.5 a5.13 5.13 0 1 0 10.26 0 a5.13 5.13 0 1 0 -10.26 0z" fill="black"></path><path d="M261.37 389.5 a5.13 5.13 0 1 0 10.26 0 a5.13 5.13 0 1 0 -10.26 0zM261.37 471.5 a5.13 5.13 0 1 0 10.26 0 a5.13 5.13 0 1 0 -10.26 0z" fill="black"></path><path d="M343.37 20.5 a5.13 5.13 0 1 0 10.26 0 a5.13 5.13 0 1 0 -10.26 0zM343.37 102.5 a5.13 5.13 0 1 0 10.26 0 a5.13 5.13 0 1 0 -10.26 0z" fill="black"></path><path d="M384.37 307.5 a5.13 5.13 0 1 0 10.26 0 a5.13 5.13 0 1 0 -10.26 0zM384.37 225.5 a5.13 5.13 0 1 0 10.26 0 a5.13 5.13 0 1 0 -10.26 0z" fill="black"></path><path d="M1040.37 553.5 a5.13 5.13 0 1 0 10.26 0 a5.13 5.13 0 1 0 -10.26 0zM1040.37 471.5 a5.13 5.13 0 1 0 10.26 0 a5.13 5.13 0 1 0 -10.26 0z" fill="black"></path></mask></defs></svg>